<svg width="433" height="398" viewBox="0 0 433 398" fill="none" xmlns="http://www.w3.org/2000/svg">
<g clip-path="url(#clip0_236_3)">
<path fill-rule="evenodd" clip-rule="evenodd" d="M3.26577 122.395C-3.84556 95.8554 13.7965 68.0686 42.6703 60.3319L216.939 13.6366C236.672 8.34931 256.544 13.7947 269.418 26.2437L347.631 24.6544C377.362 24.0504 400.973 45.966 400.369 73.6039L395.264 307.139C394.661 334.777 370.07 357.671 340.339 358.275L201.679 361.092L128.512 380.697C99.6381 388.434 70.4665 373.192 63.3549 346.651L3.26577 122.395ZM342.185 271.939L285.201 59.2703L346.901 58.0169C356.812 57.8153 364.683 65.1202 364.48 74.3333L359.377 307.867C359.175 317.08 350.978 324.712 341.067 324.912L321.369 325.313C338.672 313.059 347.598 292.138 342.185 271.939ZM51.2544 92.3684C41.6299 94.9473 35.7492 104.21 38.1196 113.056L98.2087 337.312C100.579 346.159 110.303 351.24 119.928 348.661L294.197 301.965C303.822 299.386 309.702 290.125 307.332 281.278L247.243 57.0219C244.872 48.1753 235.148 43.0942 225.524 45.6732L51.2544 92.3684Z" fill="#0F0F0F"/>
<path d="M171.25 186.366C181.22 183.694 189.725 177.188 194.894 168.278C200.063 159.368 201.472 148.784 198.811 138.855C196.151 128.926 189.639 120.465 180.708 115.334C171.776 110.202 161.158 108.819 151.188 111.491C141.218 114.162 132.713 120.669 127.544 129.579C122.375 138.489 120.966 149.072 123.626 159.001C126.287 168.93 132.799 177.391 141.73 182.523C150.661 187.655 161.28 189.037 171.25 186.366ZM175.658 202.814C125.676 216.207 100.995 252.26 104.578 265.634L111.27 290.607L275.315 246.651L268.624 221.678C264.29 205.505 227.347 188.964 175.658 202.814Z" fill="black"/>
</g>
<defs>
<clipPath id="clip0_236_3">
<rect width="433" height="398" fill="white"/>
</clipPath>
</defs>
</svg>
