<svg width="426" height="426" viewBox="0 0 426 426" fill="none" xmlns="http://www.w3.org/2000/svg">
<circle cx="213" cy="213" r="213" fill="#D9D9D9"/>
<g clip-path="url(#clip0_13_51)">
<path d="M314.431 154.274C312.664 173.751 307.633 194.289 299.741 214.105C289.982 238.61 276.65 260.194 261.184 276.524L260.325 275.775C275.716 259.524 288.989 238.035 298.707 213.631C307.489 191.578 312.713 168.628 313.82 147.273L314.917 147.457C314.801 149.712 314.639 151.985 314.431 154.274Z" fill="#F2F2F2"/>
<path d="M321.465 267.394C299.742 301.984 273.387 326.698 247.255 336.985L246.727 336.015C272.678 325.8 298.878 301.211 320.502 266.78L321.465 267.394Z" fill="#F2F2F2"/>
<path d="M313.903 178.524C312.137 198.001 307.105 218.539 299.214 238.355C289.455 262.86 276.122 284.444 260.656 300.774L259.798 300.025C275.189 283.774 288.461 262.285 298.179 237.881C306.962 215.828 312.186 192.878 313.293 171.523L314.39 171.707C314.273 173.962 314.111 176.234 313.903 178.524Z" fill="#F2F2F2"/>
<path d="M70.0351 228.528H55.7822C55.4777 228.529 55.177 228.46 54.9027 228.328C54.6283 228.196 54.3875 228.003 54.1982 227.764C54.0111 227.532 53.8792 227.26 53.8122 226.969C53.7453 226.678 53.745 226.375 53.8115 226.084C55.1689 220.089 55.0837 213.857 53.5627 207.902C53.4665 207.51 53.4898 207.098 53.6295 206.719C53.7692 206.34 54.019 206.012 54.3467 205.777C61.6756 200.501 67.4473 200.654 71.5017 206.232C71.6845 206.487 71.8059 206.78 71.8564 207.089C72.9397 213.607 72.9997 220.255 72.0341 226.791C71.967 227.274 71.7275 227.715 71.36 228.035C70.9925 228.354 70.5218 228.529 70.0351 228.528Z" fill="#E6E6E6"/>
<path d="M65.6163 214.242H60.7133C60.4422 214.242 60.1822 214.135 59.9904 213.943C59.7987 213.751 59.691 213.491 59.691 213.219C59.691 212.948 59.7987 212.688 59.9904 212.496C60.1822 212.304 60.4422 212.196 60.7133 212.196H65.6163C65.8871 212.197 66.1466 212.305 66.3378 212.496C66.5291 212.688 66.6365 212.948 66.6365 213.219C66.6365 213.49 66.5291 213.75 66.3378 213.942C66.1466 214.134 65.8871 214.242 65.6163 214.242Z" fill="white"/>
<path d="M65.6163 217.831H60.7133C60.4422 217.831 60.1822 217.723 59.9904 217.531C59.7987 217.339 59.691 217.079 59.691 216.807C59.691 216.536 59.7987 216.276 59.9904 216.084C60.1822 215.892 60.4422 215.784 60.7133 215.784H65.6163C65.8871 215.785 66.1466 215.893 66.3378 216.085C66.5291 216.277 66.6365 216.536 66.6365 216.807C66.6365 217.078 66.5291 217.338 66.3378 217.53C66.1466 217.722 65.8871 217.83 65.6163 217.831Z" fill="white"/>
<path d="M65.6163 221.419H60.7133C60.4422 221.419 60.1822 221.311 59.9904 221.119C59.7987 220.927 59.691 220.667 59.691 220.396C59.691 220.124 59.7987 219.864 59.9904 219.672C60.1822 219.48 60.4422 219.373 60.7133 219.373H65.6163C65.8871 219.373 66.1466 219.481 66.3378 219.673C66.5291 219.865 66.6365 220.125 66.6365 220.396C66.6365 220.667 66.5291 220.927 66.3378 221.119C66.1466 221.31 65.8871 221.418 65.6163 221.419Z" fill="white"/>
<path d="M329.067 292.221H314.814C314.51 292.222 314.209 292.153 313.935 292.021C313.661 291.889 313.42 291.696 313.23 291.457C313.043 291.225 312.911 290.953 312.844 290.662C312.777 290.371 312.777 290.068 312.844 289.777C314.201 283.782 314.116 277.55 312.595 271.595C312.499 271.203 312.522 270.791 312.662 270.412C312.801 270.033 313.051 269.705 313.379 269.47C320.708 264.194 326.48 264.347 330.534 269.925C330.717 270.18 330.838 270.473 330.889 270.782C331.972 277.3 332.032 283.948 331.066 290.484C330.999 290.967 330.76 291.409 330.392 291.728C330.025 292.047 329.554 292.222 329.067 292.221Z" fill="#E6E6E6"/>
<path d="M324.649 277.935H319.746C319.475 277.935 319.215 277.827 319.024 277.635C318.833 277.443 318.725 277.183 318.725 276.912C318.725 276.641 318.833 276.381 319.024 276.189C319.215 275.998 319.475 275.89 319.746 275.889H324.649C324.92 275.889 325.18 275.997 325.371 276.189C325.563 276.381 325.671 276.641 325.671 276.912C325.671 277.184 325.563 277.444 325.371 277.636C325.18 277.828 324.92 277.935 324.649 277.935Z" fill="white"/>
<path d="M324.649 281.524H319.746C319.475 281.523 319.215 281.415 319.024 281.223C318.833 281.031 318.725 280.771 318.725 280.501C318.725 280.23 318.833 279.97 319.024 279.778C319.215 279.586 319.475 279.478 319.746 279.477H324.649C324.92 279.477 325.18 279.585 325.371 279.777C325.563 279.969 325.671 280.229 325.671 280.501C325.671 280.772 325.563 281.032 325.371 281.224C325.18 281.416 324.92 281.524 324.649 281.524Z" fill="white"/>
<path d="M324.649 285.112H319.746C319.475 285.111 319.215 285.003 319.024 284.812C318.833 284.62 318.725 284.36 318.725 284.089C318.725 283.818 318.833 283.558 319.024 283.366C319.215 283.174 319.475 283.066 319.746 283.066H324.649C324.92 283.066 325.18 283.173 325.371 283.365C325.563 283.557 325.671 283.817 325.671 284.089C325.671 284.36 325.563 284.62 325.371 284.812C325.18 285.004 324.92 285.112 324.649 285.112Z" fill="white"/>
<path d="M383 379.466C383 379.536 382.987 379.606 382.96 379.671C382.933 379.736 382.894 379.795 382.844 379.844C382.795 379.894 382.736 379.933 382.671 379.96C382.606 379.987 382.537 380 382.467 380H43.5333C43.3919 380 43.2562 379.944 43.1562 379.844C43.0562 379.744 43 379.608 43 379.466C43 379.325 43.0562 379.189 43.1562 379.089C43.2562 378.989 43.3919 378.932 43.5333 378.932H382.467C382.537 378.932 382.606 378.946 382.671 378.973C382.736 378.999 382.795 379.039 382.844 379.088C382.894 379.138 382.933 379.197 382.96 379.262C382.987 379.327 383 379.396 383 379.466Z" fill="#CCCCCC"/>
<path d="M132.408 346.785L131.519 334.411C125.696 331.497 119.251 330.051 112.742 330.196C121.899 337.28 121.165 351.438 127.507 361.128C129.507 364.134 132.159 366.652 135.264 368.494C138.369 370.336 141.849 371.455 145.445 371.768L153.065 376.156C153.937 370.389 153.549 364.502 151.929 358.9C150.309 353.298 147.494 348.114 143.679 343.705C141.515 341.253 139.05 339.084 136.344 337.248C134.678 342.035 132.408 346.785 132.408 346.785Z" fill="#F2F2F2"/>
<path d="M293.592 348.58L294.481 336.205C300.304 333.291 306.75 331.845 313.258 331.99C304.101 339.074 304.835 353.232 298.494 362.922C296.493 365.929 293.841 368.446 290.736 370.288C287.631 372.13 284.151 373.249 280.555 373.562L272.935 377.95C272.063 372.183 272.451 366.296 274.071 360.694C275.691 355.092 278.506 349.908 282.321 345.5C284.485 343.048 286.95 340.878 289.656 339.043C291.322 343.829 293.592 348.58 293.592 348.58Z" fill="#F2F2F2"/>
<path d="M170.867 224.577L158.026 204.394L172.895 196.425L176.798 211.823L204.294 226.694C205.38 226.303 206.556 226.237 207.678 226.503C208.801 226.769 209.822 227.357 210.617 228.194C211.412 229.031 211.946 230.081 212.155 231.217C212.363 232.352 212.238 233.524 211.792 234.59C211.347 235.655 210.602 236.568 209.647 237.216C208.693 237.865 207.57 238.222 206.417 238.243C205.263 238.264 204.128 237.949 203.151 237.336C202.173 236.722 201.395 235.838 200.911 234.79L170.867 224.577Z" fill="#A0616A"/>
<path d="M148.645 180.188C144.611 186.116 158.948 207.667 158.948 207.667C159.647 206.16 166.324 223.081 167.442 222.082C170.62 219.241 175.596 211.327 178.361 210.974C179.943 210.773 174.693 199.546 174.693 199.546C174.693 199.546 172.294 192.917 169.038 184.449C168.162 182.038 166.691 179.888 164.761 178.199C162.832 176.51 160.506 175.337 158.002 174.789C158.002 174.789 152.68 174.259 148.645 180.188Z" fill="#3F3D56"/>
<path d="M148.842 373.346L154.94 373.345L157.841 349.804L148.841 349.804L148.842 373.346Z" fill="#A0616A"/>
<path d="M147.287 371.353L149.003 371.353L155.704 368.625L159.296 371.352H159.297C161.326 371.353 163.273 372.16 164.708 373.596C166.143 375.033 166.95 376.981 166.95 379.012V379.261L147.287 379.262L147.287 371.353Z" fill="#2F2E41"/>
<path d="M177.173 373.346L183.271 373.345L186.172 349.804L177.172 349.804L177.173 373.346Z" fill="#A0616A"/>
<path d="M175.617 371.353L177.334 371.353L184.035 368.625L187.627 371.352H187.627C189.657 371.353 191.604 372.16 193.039 373.596C194.474 375.033 195.28 376.981 195.281 379.012V379.261L175.618 379.262L175.617 371.353Z" fill="#2F2E41"/>
<path d="M179.813 244.641L140.148 245.634C132.615 249.729 132.5 258.592 134.968 269.116C134.968 269.116 134.135 275.371 135.802 277.039C137.468 278.707 138.302 278.707 137.468 281.626C136.635 284.545 141.037 289.312 140.503 289.847C139.968 290.382 138.718 293.301 138.718 293.301L142.884 317.07C142.884 317.07 145.801 358.352 146.634 359.186C147.467 360.02 148.301 359.186 147.467 361.271C146.634 363.356 145.801 362.522 146.634 363.356C147.372 364.152 148.068 364.987 148.717 365.858H158.79C158.79 365.858 159.55 361.688 159.55 361.271C159.55 360.854 160.383 358.352 160.383 357.935C160.383 357.518 159.646 356.781 159.646 356.781C159.392 355.933 159.22 355.063 159.133 354.182C159.133 353.348 156.633 321.24 156.633 321.24L161.633 279.541L173.715 320.406C173.715 320.406 173.715 356.267 174.548 357.101C175.381 357.935 175.381 357.518 174.965 359.186C174.548 360.854 172.882 360.437 174.131 361.688C175.381 362.939 175.798 360.854 175.381 362.939L174.965 365.024L187.464 365.203C187.464 365.203 189.13 361.688 188.297 360.437C187.464 359.186 187.514 359.527 188.53 357.48C189.547 355.433 189.963 355.016 189.547 354.599C189.13 354.182 189.13 351.964 189.13 351.964L187.047 312.066C187.047 312.066 186.63 269.95 186.63 268.699C186.599 268.055 186.717 267.413 186.976 266.823V265.125L185.38 259.108L179.813 244.641Z" fill="#2F2E41"/>
<path d="M155.985 162.093C162.792 162.093 168.309 156.57 168.309 149.758C168.309 142.946 162.792 137.423 155.985 137.423C149.179 137.423 143.661 142.946 143.661 149.758C143.661 156.57 149.179 162.093 155.985 162.093Z" fill="#A0616A"/>
<path d="M162.147 170.245C164.802 171.825 166.391 174.728 167.302 177.682C168.99 183.15 170.006 188.804 170.328 194.519L171.291 211.627L183.218 248.054C172.881 256.808 134.029 250.044 134.029 250.044C134.029 250.044 132.836 249.646 134.029 248.452C135.221 247.259 136.382 248.316 135.19 247.122C133.997 245.929 134.819 247.259 135.217 246.065C135.614 244.871 135.217 245.667 134.819 245.269C134.422 244.871 137.897 241.29 137.897 241.29L134.716 220.38L130.741 178.203C135.512 172.235 145.106 168.716 145.106 168.716L147.585 164.25L159.98 165.243L162.147 170.245Z" fill="#3F3D56"/>
<path d="M166.145 143.205C167.102 143.92 167.812 144.918 168.174 146.058C168.312 144.195 168.321 142.324 168.2 140.46C168.055 139.15 167.133 138.856 166.066 138.514C165.103 138.206 164.013 137.857 163.72 136.586C159.846 132.814 153.102 133.004 148.487 134.32C145.947 135.044 144.486 135.974 144.355 136.519L144.328 136.631L144.225 136.683C142.268 137.662 141.886 140.756 141.912 143.178C141.959 147.743 143.534 152.927 144.421 153.348C144.468 153.37 144.48 153.361 144.5 153.344C145.836 152.276 147.465 153.426 148.181 154.05C148.604 151.214 149.964 148.6 152.044 146.628C154.125 144.655 156.805 143.438 159.658 143.169C160.59 143.079 161.514 142.924 162.425 142.705C162.886 142.585 163.361 142.523 163.838 142.519C164.659 142.507 165.464 142.746 166.145 143.205Z" fill="#2F2E41"/>
<path d="M242.651 254.47L266.358 230.375L272.604 211.104L262.553 207.035C257.573 212.062 252.448 227.451 252.448 227.451L236.267 249.186C236.138 249.234 236.009 249.285 235.882 249.345C235.137 249.697 234.496 250.236 234.019 250.908C233.543 251.581 233.248 252.365 233.163 253.186C233.078 254.006 233.206 254.834 233.535 255.59C233.863 256.346 234.381 257.005 235.038 257.503C235.695 258 236.469 258.319 237.285 258.43C238.101 258.54 238.933 258.438 239.698 258.133C240.463 257.829 241.137 257.331 241.655 256.689C242.172 256.048 242.515 255.283 242.651 254.47Z" fill="#FFB8B8"/>
<path d="M259.811 209.24L272.522 212.92L272.569 212.911C277.241 212.003 280.937 204.231 283.215 197.872C283.964 195.774 283.89 193.47 283.007 191.425C282.124 189.38 280.498 187.748 278.458 186.857C276.949 186.21 275.289 185.998 273.666 186.246C272.043 186.493 270.521 187.191 269.273 188.258L262.935 193.72L259.811 209.24Z" fill="#67C4F9"/>
<path d="M248.936 372.63L242.099 372.629L238.848 346.239L248.936 346.24L248.936 372.63Z" fill="#FFB8B8"/>
<path d="M250.679 370.396L248.755 370.396L241.243 367.338L237.217 370.395H237.216C234.941 370.396 232.759 371.3 231.15 372.911C229.541 374.521 228.637 376.705 228.637 378.982V379.261L250.679 379.262L250.679 370.396Z" fill="#2F2E41"/>
<path d="M279.268 372.63L272.432 372.629L269.18 346.239L279.269 346.24L279.268 372.63Z" fill="#FFB8B8"/>
<path d="M281.012 370.396L279.088 370.396L271.576 367.338L267.549 370.395H267.549C265.273 370.396 263.091 371.3 261.482 372.911C259.873 374.521 258.97 376.705 258.969 378.982V379.261L281.011 379.262L281.012 370.396Z" fill="#2F2E41"/>
<path d="M289.691 258.958C289.691 258.958 290.49 268.545 288.494 277.732C286.499 286.92 286.499 312.795 286.499 312.795L282.108 363.216L268.938 362.018L265.346 277.732L252.574 306.094L253.772 310.088L252.177 311.087C252.177 311.087 253.372 318.876 252.574 318.876C251.776 318.876 249.78 320.075 249.78 320.075L251.377 361.219L237.807 360.819L233.018 302.898L238.206 269.743L238.605 263.352L240.401 263.426L241.316 260.755L242.996 256.162L289.691 258.958Z" fill="#2F2E41"/>
<path d="M290.381 260.971L290.452 260.872C294.251 255.548 288.538 242.757 287.676 240.902L291.306 239.724L290.488 232.77L290.101 229.67L292.875 226.893L292.883 226.824L294.479 212.843L296.801 203.557C297.675 200.047 297.601 196.366 296.585 192.894C295.569 189.422 293.648 186.283 291.019 183.8L285.654 178.736L279.133 169.08H268.618L265.012 175.896C261.517 176.705 258.416 178.715 256.249 181.577C254.082 184.439 252.987 187.971 253.154 191.558L253.971 209.434L250.772 231.692L250.77 235.72L247.17 239.725L247.957 243.659L245.217 244.834L244.007 250.484C243.506 251.145 240.202 255.555 240.202 256.761C240.202 256.942 240.335 257.117 240.622 257.311C242.874 258.837 255.321 261.949 260.83 259.742C266.698 257.394 290.025 260.917 290.26 260.953L290.381 260.971Z" fill="#67C4F9"/>
<path d="M272.517 165.963C280.208 165.963 286.443 159.722 286.443 152.024C286.443 144.326 280.208 138.086 272.517 138.086C264.826 138.086 258.591 144.326 258.591 152.024C258.591 159.722 264.826 165.963 272.517 165.963Z" fill="#FFB8B8"/>
<path d="M271.183 166.188C273.34 166.166 275.491 165.96 277.612 165.571C279.713 165.087 284.347 161.5 285.61 159.382C286.548 157.807 287.111 155.372 287.419 153.607C287.834 151.271 287.754 148.873 287.184 146.57C286.614 144.266 285.568 142.108 284.112 140.235C283.55 139.451 282.788 138.833 281.904 138.446C281.826 138.418 281.746 138.393 281.665 138.372C280.384 138.07 279.223 137.392 278.33 136.425C278.157 136.229 277.97 136.046 277.77 135.877C276.769 135.074 275.592 134.52 274.336 134.26C272.306 133.773 269.403 134.384 265.707 136.079C263.85 136.93 261.79 136.693 260.201 136.391C260.112 136.376 260.021 136.385 259.936 136.416C259.852 136.448 259.777 136.501 259.719 136.57C259.063 137.219 258.186 137.595 257.265 137.624C256.701 137.663 256.128 138.461 255.439 139.499C255.282 139.735 255.1 140.011 254.967 140.178L254.941 139.863L254.63 140.224C254.143 140.79 253.806 141.472 253.652 142.204C253.498 142.936 253.532 143.695 253.75 144.41C253.968 145.126 254.364 145.774 254.9 146.296C255.436 146.817 256.095 147.194 256.816 147.392C257.387 147.528 257.972 147.606 258.559 147.624C258.916 147.647 259.284 147.67 259.638 147.722C260.775 147.925 261.84 148.419 262.729 149.156C263.618 149.894 264.3 150.849 264.71 151.93C264.807 152.179 264.96 152.403 265.157 152.585C265.354 152.766 265.59 152.899 265.847 152.975C266.103 153.05 266.374 153.065 266.638 153.019C266.901 152.974 267.151 152.868 267.367 152.71C267.727 152.414 268.152 152.21 268.608 152.115C269.063 152.02 269.535 152.036 269.983 152.163C270.372 152.367 270.68 152.698 270.854 153.102C271.065 153.551 271.404 153.928 271.829 154.183C273.279 154.884 273.462 158.153 273.019 160.893C272.591 163.534 271.661 165.461 270.757 165.578C270.061 165.668 269.982 165.72 269.935 165.845L269.893 165.957L269.974 166.058C270.363 166.188 270.775 166.232 271.183 166.188Z" fill="#2F2E41"/>
<path d="M259.629 210.73L252.935 202.194C246.117 204.073 234.018 214.866 234.018 214.866L209.172 225.658C208.343 225.518 207.491 225.6 206.704 225.895C205.916 226.189 205.22 226.686 204.685 227.336C204.15 227.985 203.796 228.764 203.657 229.594C203.519 230.424 203.601 231.276 203.897 232.065C204.192 232.853 204.689 233.549 205.339 234.083C205.988 234.618 206.767 234.972 207.597 235.109C208.426 235.247 209.278 235.163 210.065 234.867C210.852 234.57 211.547 234.071 212.08 233.421L244.628 224.332L259.629 210.73Z" fill="#FFB8B8"/>
<path d="M258.025 212.682L268.587 200.898L269.173 192.547C269.283 190.908 268.931 189.27 268.159 187.82C267.387 186.369 266.226 185.164 264.805 184.34C262.872 183.236 260.592 182.907 258.427 183.421C256.261 183.935 254.371 185.253 253.139 187.108C249.407 192.737 245.392 200.349 247.458 204.64L247.479 204.684L258.025 212.682Z" fill="#67C4F9"/>
<path d="M160.676 256.975L133.224 242.904C131.272 241.903 130.625 239.248 131.783 236.986L149.681 202.007C150.839 199.745 153.369 198.719 155.322 199.719L182.773 213.791C184.726 214.792 185.373 217.446 184.215 219.709L166.316 254.688C165.159 256.95 162.628 257.976 160.676 256.975Z" fill="#E6E6E6"/>
<path d="M155.985 250.507L137.335 240.946C135.506 240.009 134.9 237.523 135.984 235.404L150.854 206.344C151.938 204.225 154.308 203.264 156.137 204.202L178.663 215.748C180.492 216.686 181.098 219.172 180.014 221.291L171.935 237.078C167.106 246.515 164.131 254.682 155.985 250.507Z" fill="white"/>
<path d="M165.207 234.637L148.687 226.169C148.485 226.025 148.342 225.813 148.283 225.572C148.224 225.331 148.254 225.077 148.367 224.856C148.48 224.635 148.669 224.462 148.899 224.369C149.128 224.275 149.384 224.268 149.619 224.348L166.139 232.816C166.341 232.96 166.484 233.172 166.543 233.413C166.602 233.654 166.572 233.908 166.459 234.129C166.346 234.35 166.157 234.523 165.927 234.616C165.697 234.71 165.441 234.717 165.207 234.637Z" fill="#67C4F9"/>
<path d="M150.616 231.7L146.846 229.768C146.644 229.624 146.5 229.412 146.442 229.17C146.383 228.929 146.413 228.675 146.526 228.454C146.639 228.233 146.827 228.06 147.057 227.967C147.287 227.874 147.543 227.866 147.778 227.946L151.548 229.879C151.75 230.023 151.893 230.235 151.952 230.476C152.011 230.717 151.981 230.971 151.868 231.192C151.755 231.413 151.566 231.586 151.336 231.679C151.106 231.773 150.851 231.78 150.616 231.7Z" fill="#67C4F9"/>
<path d="M155.451 238.721L145.004 233.366C144.802 233.222 144.659 233.01 144.6 232.769C144.541 232.528 144.571 232.273 144.684 232.052C144.797 231.831 144.986 231.659 145.216 231.565C145.446 231.472 145.702 231.465 145.936 231.545L156.383 236.9C156.585 237.044 156.729 237.256 156.788 237.497C156.846 237.738 156.816 237.992 156.703 238.213C156.59 238.434 156.402 238.607 156.172 238.7C155.942 238.794 155.686 238.801 155.451 238.721Z" fill="#67C4F9"/>
<path d="M171.744 221.862L155.224 213.394C155.022 213.25 154.879 213.038 154.82 212.797C154.761 212.556 154.791 212.301 154.904 212.08C155.017 211.859 155.206 211.686 155.436 211.593C155.666 211.5 155.921 211.493 156.156 211.573L172.676 220.04C172.878 220.184 173.021 220.396 173.08 220.638C173.139 220.879 173.109 221.133 172.996 221.354C172.883 221.575 172.694 221.748 172.464 221.841C172.234 221.934 171.979 221.942 171.744 221.862Z" fill="#67C4F9"/>
<path d="M157.153 218.925L153.383 216.992C153.181 216.848 153.038 216.636 152.979 216.395C152.92 216.154 152.95 215.9 153.063 215.679C153.176 215.458 153.365 215.285 153.595 215.192C153.824 215.098 154.08 215.091 154.315 215.171L158.085 217.103C158.287 217.247 158.43 217.459 158.489 217.701C158.548 217.942 158.518 218.196 158.405 218.417C158.292 218.638 158.103 218.811 157.873 218.904C157.643 218.997 157.388 219.005 157.153 218.925Z" fill="#67C4F9"/>
<path d="M161.989 225.946L151.542 220.591C151.34 220.447 151.196 220.235 151.137 219.993C151.079 219.752 151.109 219.498 151.222 219.277C151.335 219.056 151.523 218.883 151.753 218.79C151.983 218.697 152.239 218.689 152.474 218.769L162.921 224.124C163.123 224.268 163.266 224.48 163.325 224.721C163.384 224.963 163.354 225.217 163.241 225.438C163.128 225.659 162.939 225.832 162.709 225.925C162.479 226.018 162.223 226.026 161.989 225.946Z" fill="#67C4F9"/>
<path d="M137.928 226.523L131.726 203.415L148.299 200.275L147.408 216.136L169.182 238.577C170.335 238.529 171.477 238.819 172.468 239.41C173.459 240.001 174.257 240.868 174.764 241.905C175.272 242.942 175.467 244.104 175.326 245.25C175.185 246.396 174.713 247.476 173.969 248.359C173.225 249.242 172.241 249.889 171.136 250.221C170.031 250.553 168.853 250.556 167.747 250.23C166.64 249.904 165.652 249.263 164.903 248.385C164.154 247.506 163.676 246.429 163.529 245.284L137.928 226.523Z" fill="#A0616A"/>
<path d="M130.03 177.507C124.405 181.951 131.625 206.813 131.625 206.813C132.743 205.585 134.042 223.732 135.408 223.114C139.292 221.358 146.409 215.302 149.153 215.796C150.723 216.078 149.078 203.793 149.078 203.793C149.078 203.793 148.776 196.749 148.208 187.693C148.095 185.13 147.335 182.637 146 180.447C144.666 178.256 142.799 176.439 140.574 175.165C140.574 175.165 135.656 173.062 130.03 177.507Z" fill="#3F3D56"/>
<path d="M223.63 277.812L208.65 270.732C208.329 270.582 208.047 270.36 207.824 270.085C207.602 269.81 207.444 269.488 207.363 269.143C207.282 268.805 207.278 268.454 207.352 268.115C207.426 267.776 207.576 267.458 207.79 267.185C212.129 261.634 215.109 255.143 216.49 248.232C216.594 247.703 216.879 247.227 217.295 246.884C217.711 246.541 218.233 246.353 218.772 246.353C226.412 246.379 232.122 249.171 235.743 254.65C235.934 254.935 236.06 255.259 236.113 255.598C236.167 255.937 236.146 256.283 236.051 256.613C233.955 263.845 230.765 270.714 226.592 276.98C226.282 277.454 225.811 277.799 225.267 277.952C224.722 278.105 224.14 278.055 223.63 277.812Z" fill="#E6E6E6"/>
<path d="M228.036 267.882L216.582 262.469C216.297 262.334 216.078 262.092 215.971 261.795C215.865 261.498 215.881 261.171 216.015 260.886C216.15 260.6 216.392 260.38 216.689 260.274C216.985 260.168 217.312 260.183 217.597 260.318L229.051 265.731C229.192 265.798 229.319 265.892 229.424 266.008C229.528 266.123 229.61 266.258 229.662 266.405C229.715 266.552 229.738 266.708 229.731 266.864C229.723 267.02 229.685 267.173 229.618 267.315C229.552 267.456 229.458 267.583 229.342 267.687C229.227 267.792 229.092 267.874 228.945 267.926C228.798 267.979 228.642 268.002 228.486 267.995C228.33 267.987 228.177 267.949 228.036 267.882Z" fill="white"/>
<path d="M229.816 264.111L218.362 258.697C218.077 258.563 217.857 258.32 217.751 258.023C217.644 257.726 217.66 257.399 217.795 257.114C217.929 256.829 218.172 256.609 218.468 256.503C218.765 256.396 219.092 256.412 219.377 256.547L230.831 261.96C231.115 262.095 231.335 262.337 231.442 262.634C231.548 262.931 231.532 263.258 231.398 263.543C231.263 263.828 231.021 264.048 230.724 264.155C230.428 264.261 230.101 264.245 229.816 264.111Z" fill="white"/>
<path d="M214.511 145.721L213.445 145.838C208.691 127.141 199.476 114.188 186.797 108.379C170.678 100.994 150.746 105.953 130.673 122.342C110.498 138.814 92.6373 164.833 80.3823 195.608L79.3478 195.134C91.6566 164.225 109.609 138.08 129.897 121.516C150.287 104.868 170.625 99.8732 187.166 107.451C200.209 113.427 209.665 126.66 214.511 145.721Z" fill="#F2F2F2"/>
<path d="M96.8823 170.072C94.094 175.951 91.4419 182.041 88.9996 188.174C74.9453 223.467 67.8232 259.509 68.4052 292.408L67.3068 292.291C66.7242 259.27 73.8668 223.103 87.9651 187.7C90.4144 181.55 93.0741 175.442 95.8703 169.547L96.8823 170.072Z" fill="#F2F2F2"/>
<path d="M96.355 194.322C93.5668 200.201 90.9147 206.291 88.4724 212.424C74.4181 247.716 67.296 283.759 67.878 316.658L66.7796 316.541C66.197 283.52 73.3396 247.353 87.4379 211.95C89.8872 205.8 92.5468 199.692 95.3431 193.797L96.355 194.322Z" fill="#F2F2F2"/>
<path d="M66.8325 203.141C68.0467 201.314 67.328 198.7 65.2272 197.301C63.1264 195.902 60.4391 196.249 59.2248 198.075C58.0106 199.902 58.7293 202.517 60.8301 203.916C62.9309 205.315 65.6182 204.968 66.8325 203.141Z" fill="#CCCCCC"/>
<path d="M325.39 269.108C326.605 267.281 325.886 264.666 323.785 263.267C321.684 261.869 318.997 262.215 317.783 264.042C316.569 265.869 317.287 268.484 319.388 269.882C321.489 271.281 324.176 270.935 325.39 269.108Z" fill="#CCCCCC"/>
</g>
<path d="M168 104.5L158 123L176 109C179.667 109 198.4 100.5 232 104.5C274 109.5 265 109 272.5 109C292.896 109 304.5 87.5 304.5 80.9999C304.5 73.5 306.254 38.9999 282.5 38.9999C217 38.9999 272.5 37.9999 217 38.9999C161.5 39.9999 179 38 164 42C149 46 146.5 68.9999 151 80.9999C154.6 90.5999 163.833 100.667 168 104.5Z" stroke="black"/>
<path d="M180.114 86V68.5455H182.227V76.3182H191.534V68.5455H193.648V86H191.534V78.1932H182.227V86H180.114ZM197.607 86V72.9091H199.618V86H197.607ZM198.629 70.7273C198.237 70.7273 197.899 70.5938 197.615 70.3267C197.337 70.0597 197.197 69.7386 197.197 69.3636C197.197 68.9886 197.337 68.6676 197.615 68.4006C197.899 68.1335 198.237 68 198.629 68C199.021 68 199.357 68.1335 199.635 68.4006C199.919 68.6676 200.061 68.9886 200.061 69.3636C200.061 69.7386 199.919 70.0597 199.635 70.3267C199.357 70.5938 199.021 70.7273 198.629 70.7273ZM206.302 83.6136L206.165 84.5341C206.069 85.1818 205.921 85.875 205.722 86.6136C205.529 87.3523 205.327 88.0483 205.117 88.7017C204.907 89.3551 204.734 89.875 204.597 90.2614H203.063C203.137 89.8977 203.234 89.4176 203.353 88.821C203.472 88.2244 203.592 87.5568 203.711 86.8182C203.836 86.0852 203.938 85.3352 204.018 84.5682L204.12 83.6136H206.302ZM222.267 86.2727C221.006 86.2727 219.918 85.9943 219.003 85.4375C218.094 84.875 217.392 84.0909 216.898 83.0852C216.409 82.0739 216.165 80.8977 216.165 79.5568C216.165 78.2159 216.409 77.0341 216.898 76.0114C217.392 74.983 218.08 74.1818 218.96 73.608C219.847 73.0284 220.881 72.7386 222.062 72.7386C222.744 72.7386 223.418 72.8523 224.082 73.0795C224.747 73.3068 225.352 73.6761 225.898 74.1875C226.443 74.6932 226.878 75.3636 227.202 76.1989C227.526 77.0341 227.688 78.0625 227.688 79.2841V80.1364H217.597V78.3977H225.642C225.642 77.6591 225.494 77 225.199 76.4205C224.909 75.8409 224.494 75.3835 223.955 75.0483C223.42 74.7131 222.79 74.5455 222.062 74.5455C221.261 74.5455 220.568 74.7443 219.983 75.142C219.403 75.5341 218.957 76.0455 218.645 76.6761C218.332 77.3068 218.176 77.983 218.176 78.7045V79.8636C218.176 80.8523 218.347 81.6903 218.688 82.3778C219.034 83.0597 219.514 83.5795 220.128 83.9375C220.741 84.2898 221.455 84.4659 222.267 84.4659C222.795 84.4659 223.273 84.392 223.699 84.2443C224.131 84.0909 224.503 83.8636 224.815 83.5625C225.128 83.2557 225.369 82.875 225.54 82.4205L227.483 82.9659C227.278 83.625 226.935 84.2045 226.452 84.7045C225.969 85.1989 225.372 85.5852 224.662 85.8636C223.952 86.1364 223.153 86.2727 222.267 86.2727ZM238.997 80.6477V72.9091H241.009V86H238.997V83.7841H238.861C238.554 84.4489 238.077 85.0142 237.429 85.4801C236.781 85.9403 235.963 86.1705 234.974 86.1705C234.156 86.1705 233.429 85.9915 232.793 85.6335C232.156 85.2699 231.656 84.7244 231.293 83.9972C230.929 83.2642 230.747 82.3409 230.747 81.2273V72.9091H232.759V81.0909C232.759 82.0455 233.026 82.8068 233.56 83.375C234.099 83.9432 234.787 84.2273 235.622 84.2273C236.122 84.2273 236.631 84.0994 237.148 83.8438C237.67 83.5881 238.108 83.196 238.46 82.6676C238.818 82.1392 238.997 81.4659 238.997 80.6477ZM246.704 78.125V86H244.692V68.5455H246.704V74.9545H246.874C247.181 74.2784 247.641 73.7415 248.255 73.3438C248.874 72.9403 249.698 72.7386 250.727 72.7386C251.619 72.7386 252.4 72.9176 253.07 73.2756C253.741 73.6278 254.261 74.1705 254.63 74.9034C255.005 75.6307 255.192 76.5568 255.192 77.6818V86H253.181V77.8182C253.181 76.7784 252.911 75.9744 252.371 75.4062C251.837 74.8324 251.096 74.5455 250.147 74.5455C249.488 74.5455 248.897 74.6847 248.374 74.9631C247.857 75.2415 247.448 75.6477 247.147 76.1818C246.852 76.7159 246.704 77.3636 246.704 78.125ZM268.247 81.0909V80.9886C268.259 79.9034 268.372 79.0398 268.588 78.3977C268.804 77.7557 269.111 77.2358 269.509 76.8381C269.906 76.4403 270.384 76.0739 270.94 75.7386C271.276 75.5341 271.577 75.2926 271.844 75.0142C272.111 74.7301 272.321 74.4034 272.474 74.0341C272.634 73.6648 272.713 73.2557 272.713 72.8068C272.713 72.25 272.582 71.767 272.321 71.358C272.06 70.9489 271.71 70.6335 271.273 70.4119C270.835 70.1903 270.349 70.0795 269.815 70.0795C269.349 70.0795 268.901 70.1761 268.469 70.3693C268.037 70.5625 267.676 70.8665 267.386 71.2812C267.097 71.696 266.929 72.2386 266.884 72.9091H264.736C264.781 71.9432 265.031 71.1165 265.486 70.429C265.946 69.7415 266.551 69.2159 267.301 68.8523C268.057 68.4886 268.895 68.3068 269.815 68.3068C270.815 68.3068 271.685 68.5057 272.423 68.9034C273.168 69.3011 273.741 69.8466 274.145 70.5398C274.554 71.233 274.759 72.0227 274.759 72.9091C274.759 73.5341 274.662 74.0994 274.469 74.6051C274.281 75.1108 274.009 75.5625 273.651 75.9602C273.298 76.358 272.872 76.7102 272.372 77.017C271.872 77.3295 271.472 77.6591 271.17 78.0057C270.869 78.3466 270.651 78.7528 270.514 79.2244C270.378 79.696 270.304 80.2841 270.293 80.9886V81.0909H268.247ZM269.338 86.1364C268.918 86.1364 268.557 85.9858 268.256 85.6847C267.955 85.3835 267.804 85.0227 267.804 84.6023C267.804 84.1818 267.955 83.821 268.256 83.5199C268.557 83.2187 268.918 83.0682 269.338 83.0682C269.759 83.0682 270.119 83.2187 270.42 83.5199C270.722 83.821 270.872 84.1818 270.872 84.6023C270.872 84.8807 270.801 85.1364 270.659 85.3693C270.523 85.6023 270.338 85.7898 270.105 85.9318C269.878 86.0682 269.622 86.1364 269.338 86.1364ZM280.411 81.0909V80.9886C280.423 79.9034 280.536 79.0398 280.752 78.3977C280.968 77.7557 281.275 77.2358 281.673 76.8381C282.07 76.4403 282.548 76.0739 283.104 75.7386C283.44 75.5341 283.741 75.2926 284.008 75.0142C284.275 74.7301 284.485 74.4034 284.638 74.0341C284.798 73.6648 284.877 73.2557 284.877 72.8068C284.877 72.25 284.746 71.767 284.485 71.358C284.224 70.9489 283.874 70.6335 283.437 70.4119C282.999 70.1903 282.513 70.0795 281.979 70.0795C281.513 70.0795 281.065 70.1761 280.633 70.3693C280.201 70.5625 279.84 70.8665 279.55 71.2812C279.261 71.696 279.093 72.2386 279.048 72.9091H276.9C276.945 71.9432 277.195 71.1165 277.65 70.429C278.11 69.7415 278.715 69.2159 279.465 68.8523C280.221 68.4886 281.059 68.3068 281.979 68.3068C282.979 68.3068 283.849 68.5057 284.587 68.9034C285.332 69.3011 285.906 69.8466 286.309 70.5398C286.718 71.233 286.923 72.0227 286.923 72.9091C286.923 73.5341 286.826 74.0994 286.633 74.6051C286.445 75.1108 286.173 75.5625 285.815 75.9602C285.462 76.358 285.036 76.7102 284.536 77.017C284.036 77.3295 283.636 77.6591 283.335 78.0057C283.033 78.3466 282.815 78.7528 282.678 79.2244C282.542 79.696 282.468 80.2841 282.457 80.9886V81.0909H280.411ZM281.502 86.1364C281.082 86.1364 280.721 85.9858 280.42 85.6847C280.119 85.3835 279.968 85.0227 279.968 84.6023C279.968 84.1818 280.119 83.821 280.42 83.5199C280.721 83.2187 281.082 83.0682 281.502 83.0682C281.923 83.0682 282.283 83.2187 282.585 83.5199C282.886 83.821 283.036 84.1818 283.036 84.6023C283.036 84.8807 282.965 85.1364 282.823 85.3693C282.687 85.6023 282.502 85.7898 282.269 85.9318C282.042 86.0682 281.786 86.1364 281.502 86.1364Z" fill="black"/>
<defs>
<clipPath id="clip0_13_51">
<rect width="340" height="276" fill="white" transform="translate(43 104)"/>
</clipPath>
</defs>
</svg>
